<svg xmlns="http://www.w3.org/2000/svg" width="687" height="112" viewBox="0 0 687.4 111.5" version="1.1" xml:space="preserve" xmlns:serif="http://www.serif.com/" style="fill-rule:evenodd;clip-rule:evenodd;stroke-linejoin:round;stroke-miterlimit:1.41421;"><g><path d="M95.145,16.573c-10.095,-10.094 -23.986,-16.291 -39.377,-16.291c-15.392,0 -29.383,6.197 -39.477,16.291c-10.095,10.094 -16.291,24.086 -16.291,39.477c0,15.391 6.196,29.283 16.291,39.377c10.094,10.094 23.986,16.291 39.377,16.291c15.391,0 29.283,-6.197 39.377,-16.291c10.094,-10.094 16.29,-23.986 16.29,-39.377c0,-15.391 -6.096,-29.383 -16.19,-39.477Zm-1.899,76.955c-9.595,9.595 -22.887,15.591 -37.578,15.591c-14.692,0 -27.984,-5.896 -37.579,-15.591c-9.594,-9.694 -15.491,-22.887 -15.491,-37.478c0,-14.691 5.997,-27.984 15.591,-37.578c9.595,-9.595 22.887,-15.591 37.579,-15.591c14.691,0 27.983,5.996 37.578,15.591c9.594,9.594 15.591,22.887 15.591,37.578c-0.1,14.591 -5.997,27.884 -15.691,37.478Z" style="fill:#35495c;fill-rule:nonzero;"/><path d="M103.64,55.55c-0.2,-26.284 -21.588,-47.472 -47.872,-47.472c-26.285,0 -47.673,21.188 -47.973,47.472l21.988,-21.987l7.395,7.396l-16.09,16.09l69.359,0l-16.09,-16.09l7.395,-7.396l21.888,21.987Zm-47.872,-8.195l-20.489,-21.487l13.593,0l0,-10.594c0,-2.699 3.098,-4.997 6.896,-4.997c3.797,0 6.896,2.198 6.896,4.997l0,10.594l13.592,0l-20.488,21.487Z" style="fill:#35495c;fill-rule:nonzero;"/><path d="M61.664,83.034c-1.099,-0.699 -2.498,-1.299 -4.098,-1.899c-1.299,-0.399 -2.298,-0.899 -3.098,-1.299c-0.799,-0.4 -1.399,-0.799 -1.799,-1.299c-0.399,-0.5 -0.599,-1 -0.599,-1.699c0,-0.5 0.2,-1 0.499,-1.499c0.3,-0.5 0.8,-0.9 1.5,-1.1c0.699,-0.299 1.599,-0.499 2.698,-0.499c0.899,0 1.699,0.1 2.498,0.2c0.7,0.099 1.4,0.299 1.899,0.499c0.6,0.2 1,0.4 1.4,0.5l1.199,-3.698c-0.7,-0.4 -1.699,-0.699 -2.798,-0.899c-1,-0.2 -2.099,-0.3 -3.299,-0.4l0,-3.898l-3.398,0l0,4.098c-0.499,0.1 -1.099,0.2 -1.599,0.4c-1.299,0.399 -2.298,0.899 -3.198,1.599c-0.899,0.699 -1.599,1.399 -1.999,2.298c-0.499,0.9 -0.699,1.899 -0.699,2.899c0,1.199 0.3,2.298 0.999,3.198c0.6,0.899 1.499,1.699 2.699,2.398c1.199,0.7 2.498,1.3 4.197,1.799c1.199,0.4 2.199,0.8 2.898,1.2c0.7,0.399 1.3,0.899 1.6,1.399c0.299,0.499 0.499,1.099 0.499,1.699c0,0.699 -0.2,1.299 -0.599,1.799c-0.4,0.499 -1,0.899 -1.799,1.199c-0.8,0.3 -1.699,0.4 -2.799,0.4c-0.899,0 -1.799,-0.1 -2.598,-0.2c-0.8,-0.2 -1.599,-0.4 -2.399,-0.6c-0.699,-0.2 -1.399,-0.499 -1.999,-0.799l-1.199,3.897c0.5,0.3 1.199,0.6 1.999,0.8c0.799,0.2 1.699,0.4 2.698,0.6c1,0.1 1.999,0.2 2.999,0.2l0.199,0l0,3.997l3.398,0l0,-4.297c0.4,-0.1 0.8,-0.2 1.2,-0.3c1.399,-0.4 2.498,-1 3.398,-1.699c0.899,-0.7 1.599,-1.499 1.999,-2.499c0.399,-0.899 0.699,-1.899 0.699,-2.998c0,-1.199 -0.3,-2.299 -0.799,-3.198c-0.5,-0.8 -1.3,-1.599 -2.399,-2.299Z" style="fill:#35495c;fill-rule:nonzero;"/><path d="M131.723,57.449c0,1.199 0.2,2.299 0.5,3.398c0.3,1.1 0.8,1.999 1.499,2.898c0.7,0.8 1.499,1.5 2.499,1.899c0.999,0.5 2.198,0.7 3.598,0.7c1.898,0 3.498,-0.4 4.697,-1.299c1.199,-0.8 2.099,-2.099 2.598,-3.798l6.297,0c-0.3,1.599 -1,3.098 -1.799,4.397c-0.9,1.3 -1.899,2.399 -3.098,3.199c-1.2,0.899 -2.599,1.499 -3.998,1.998c-1.499,0.4 -3.098,0.7 -4.697,0.7c-2.399,0 -4.498,-0.4 -6.297,-1.199c-1.799,-0.8 -3.398,-1.899 -4.597,-3.298c-1.299,-1.4 -2.199,-3.099 -2.898,-4.998c-0.6,-1.898 -1,-4.097 -1,-6.396c0,-2.099 0.3,-4.197 1,-6.096c0.699,-1.899 1.599,-3.598 2.898,-5.097c1.299,-1.499 2.798,-2.599 4.597,-3.498c1.799,-0.9 3.798,-1.299 6.097,-1.299c2.398,0 4.497,0.499 6.396,1.499c1.899,0.999 3.398,2.298 4.697,3.897c1.2,1.599 2.099,3.498 2.699,5.597c0.599,2.099 0.699,4.298 0.399,6.496l-22.087,0l0,0.3Zm15.391,-4.297c-0.1,-1 -0.299,-2.099 -0.699,-2.999c-0.4,-0.999 -0.9,-1.799 -1.499,-2.498c-0.6,-0.7 -1.4,-1.299 -2.299,-1.699c-0.9,-0.4 -1.899,-0.7 -3.098,-0.7c-1.2,0 -2.199,0.2 -3.198,0.6c-1,0.4 -1.799,0.999 -2.399,1.699c-0.7,0.7 -1.199,1.599 -1.599,2.498c-0.4,1 -0.6,1.999 -0.7,3.099l15.491,0Z" style="fill:#35495c;fill-rule:nonzero;"/><path d="M183.993,64.145c0,0.8 0.1,1.399 0.3,1.699c0.2,0.3 0.599,0.5 1.299,0.5c0.2,0 0.4,0 0.7,0c0.299,0 0.599,0 0.899,-0.1l0,4.597c-0.2,0.1 -0.5,0.2 -0.899,0.3c-0.4,0.1 -0.7,0.2 -1.1,0.3c-0.4,0.1 -0.799,0.1 -1.199,0.2c-0.4,0.1 -0.7,0.1 -1,0.1c-1.399,0 -2.498,-0.3 -3.398,-0.8c-0.899,-0.499 -1.499,-1.499 -1.699,-2.898c-1.299,1.299 -2.898,2.199 -4.897,2.798c-1.899,0.6 -3.798,0.9 -5.596,0.9c-1.4,0 -2.699,-0.2 -3.898,-0.6c-1.2,-0.4 -2.299,-0.899 -3.298,-1.599c-1,-0.699 -1.699,-1.599 -2.299,-2.698c-0.6,-1.1 -0.799,-2.399 -0.799,-3.898c0,-1.899 0.299,-3.398 0.999,-4.497c0.7,-1.2 1.599,-2.099 2.698,-2.699c1.1,-0.699 2.299,-1.099 3.698,-1.399c1.399,-0.3 2.799,-0.5 4.198,-0.7c1.199,-0.2 2.298,-0.399 3.398,-0.499c1.099,-0.1 1.999,-0.3 2.898,-0.5c0.8,-0.2 1.499,-0.6 1.999,-1.099c0.5,-0.5 0.7,-1.2 0.7,-2.199c0,-0.9 -0.2,-1.599 -0.6,-2.099c-0.4,-0.5 -0.9,-0.999 -1.499,-1.299c-0.6,-0.3 -1.299,-0.5 -1.999,-0.6c-0.7,-0.1 -1.399,-0.1 -2.099,-0.1c-1.899,0 -3.398,0.4 -4.597,1.2c-1.199,0.799 -1.899,1.998 -1.999,3.597l-6.596,0c0.1,-1.898 0.599,-3.498 1.399,-4.797c0.8,-1.299 1.899,-2.298 3.098,-3.098c1.299,-0.799 2.699,-1.299 4.298,-1.599c1.599,-0.3 3.198,-0.5 4.897,-0.5c1.499,0 2.898,0.2 4.397,0.5c1.399,0.3 2.699,0.8 3.898,1.499c1.099,0.7 2.099,1.599 2.798,2.699c0.7,1.099 1,2.498 1,3.997l0,15.391l-0.1,0Zm-6.596,-8.395c-1,0.7 -2.199,1.1 -3.698,1.199c-1.499,0.1 -2.898,0.3 -4.398,0.6c-0.699,0.1 -1.399,0.3 -1.998,0.5c-0.7,0.2 -1.2,0.5 -1.699,0.899c-0.5,0.4 -0.9,0.9 -1.2,1.499c-0.3,0.6 -0.399,1.3 -0.399,2.199c0,0.7 0.199,1.399 0.599,1.899c0.4,0.5 0.9,0.9 1.499,1.199c0.6,0.3 1.3,0.5 1.999,0.6c0.7,0.1 1.399,0.2 1.899,0.2c0.7,0 1.499,-0.1 2.399,-0.3c0.899,-0.2 1.699,-0.5 2.398,-0.999c0.8,-0.5 1.399,-1.1 1.899,-1.799c0.5,-0.7 0.8,-1.599 0.8,-2.599l0,-5.097l-0.1,0Z" style="fill:#35495c;fill-rule:nonzero;"/><path d="M196.186,61.147c0.2,1.899 0.899,3.298 2.198,4.098c1.3,0.799 2.799,1.199 4.598,1.199c0.599,0 1.299,0 2.099,-0.1c0.799,-0.1 1.499,-0.3 2.198,-0.6c0.7,-0.299 1.3,-0.699 1.699,-1.199c0.4,-0.5 0.6,-1.199 0.6,-2.099c0,-0.899 -0.3,-1.599 -0.9,-2.099c-0.599,-0.499 -1.299,-0.999 -2.198,-1.299c-0.9,-0.3 -1.899,-0.599 -3.098,-0.799c-1.2,-0.2 -2.299,-0.5 -3.498,-0.8c-1.2,-0.3 -2.399,-0.599 -3.598,-0.999c-1.1,-0.4 -2.199,-0.9 -3.098,-1.599c-0.9,-0.7 -1.6,-1.499 -2.199,-2.499c-0.5,-0.999 -0.8,-2.299 -0.8,-3.798c0,-1.599 0.4,-2.998 1.2,-4.097c0.799,-1.1 1.799,-1.999 2.998,-2.699c1.199,-0.699 2.598,-1.199 4.097,-1.399c1.5,-0.3 2.899,-0.4 4.298,-0.4c1.599,0 2.998,0.2 4.497,0.5c1.399,0.3 2.699,0.9 3.798,1.599c1.099,0.7 2.099,1.699 2.898,2.898c0.8,1.2 1.2,2.599 1.4,4.298l-6.896,0c-0.3,-1.599 -1,-2.699 -2.199,-3.198c-1.099,-0.5 -2.499,-0.8 -3.898,-0.8c-0.5,0 -0.999,0 -1.699,0.1c-0.599,0.1 -1.199,0.2 -1.799,0.4c-0.599,0.2 -0.999,0.5 -1.399,0.899c-0.4,0.4 -0.6,0.9 -0.6,1.6c0,0.799 0.3,1.499 0.8,1.998c0.6,0.5 1.299,0.9 2.199,1.3c0.899,0.299 1.899,0.599 3.098,0.799c1.199,0.2 2.398,0.5 3.598,0.8c1.199,0.299 2.398,0.599 3.498,0.999c1.199,0.4 2.198,0.9 3.098,1.599c0.899,0.7 1.599,1.499 2.199,2.499c0.599,0.999 0.799,2.298 0.799,3.698c0,1.798 -0.4,3.298 -1.199,4.497c-0.8,1.199 -1.899,2.299 -3.198,2.998c-1.3,0.8 -2.699,1.299 -4.298,1.699c-1.599,0.3 -3.198,0.5 -4.697,0.5c-1.899,0 -3.698,-0.2 -5.297,-0.6c-1.599,-0.4 -2.998,-1.099 -4.198,-1.899c-1.199,-0.899 -2.098,-1.998 -2.798,-3.298c-0.7,-1.299 -0.999,-2.798 -1.099,-4.597l6.796,0l0,-0.1Z" style="fill:#35495c;fill-rule:nonzero;"/><path d="M217.973,40.759l7.296,0l7.895,22.487l0.1,0l7.596,-22.487l6.896,0l-11.693,31.681c-0.5,1.4 -1.1,2.699 -1.6,3.898c-0.499,1.199 -1.199,2.299 -1.898,3.298c-0.8,1 -1.699,1.699 -2.799,2.299c-1.099,0.6 -2.598,0.799 -4.297,0.799c-1.599,0 -3.098,-0.1 -4.598,-0.299l0,-5.597c0.5,0.1 1.1,0.2 1.599,0.3c0.5,0.1 1,0.1 1.6,0.1c0.799,0 1.399,-0.1 1.898,-0.3c0.5,-0.2 0.9,-0.5 1.3,-0.8c0.3,-0.399 0.599,-0.799 0.799,-1.299c0.2,-0.5 0.4,-1.099 0.6,-1.699l0.799,-2.299l-11.493,-30.082Z" style="fill:#35495c;fill-rule:nonzero;"/><path d="M274.54,70.841l0,-5.696l-0.1,0c-0.4,0.999 -0.999,1.899 -1.699,2.698c-0.799,0.8 -1.599,1.499 -2.598,2.099c-1,0.6 -1.999,0.999 -3.098,1.299c-1.1,0.3 -2.199,0.5 -3.299,0.5c-2.298,0 -4.297,-0.4 -5.996,-1.299c-1.699,-0.8 -3.098,-1.999 -4.198,-3.398c-1.099,-1.5 -1.998,-3.099 -2.498,-5.097c-0.5,-1.899 -0.8,-3.898 -0.8,-6.097c0,-2.099 0.3,-4.197 0.8,-6.096c0.5,-1.899 1.399,-3.598 2.498,-5.097c1.1,-1.5 2.499,-2.599 4.198,-3.498c1.699,-0.9 3.698,-1.3 5.996,-1.3c1.1,0 2.199,0.1 3.299,0.4c1.099,0.3 2.098,0.7 2.998,1.299c0.899,0.6 1.799,1.3 2.498,2.099c0.7,0.8 1.3,1.799 1.699,2.898l0.1,0l0,-17.289l3.698,0l0,41.475l-3.498,0l0,0.1Zm-20.088,-10.394c0.4,1.5 0.999,2.899 1.699,4.098c0.799,1.199 1.799,2.199 3.098,2.898c1.199,0.8 2.698,1.1 4.497,1.1c1.899,0 3.598,-0.4 4.898,-1.1c1.299,-0.799 2.398,-1.699 3.298,-2.898c0.799,-1.199 1.399,-2.598 1.799,-4.098c0.399,-1.499 0.599,-3.098 0.599,-4.597c0,-1.599 -0.2,-3.098 -0.599,-4.597c-0.4,-1.499 -1,-2.899 -1.799,-4.098c-0.8,-1.199 -1.899,-2.199 -3.298,-2.898c-1.3,-0.8 -2.999,-1.1 -4.898,-1.1c-1.699,0 -3.198,0.4 -4.497,1.1c-1.199,0.799 -2.299,1.699 -3.098,2.898c-0.8,1.199 -1.399,2.599 -1.699,4.098c-0.4,1.499 -0.6,3.098 -0.6,4.597c0,1.499 0.2,2.998 0.6,4.597Z" style="fill:#35495c;fill-rule:nonzero;"/><path d="M288.632,29.266l0,5.896l-3.698,0l0,-5.896l3.698,0Zm0,11.493l0,29.982l-3.698,0l0,-29.982l3.698,0Z" style="fill:#35495c;fill-rule:nonzero;"/><path d="M320.314,74.339c-0.5,1.799 -1.3,3.298 -2.299,4.498c-1,1.199 -2.399,2.198 -4.098,2.898c-1.699,0.7 -3.798,0.999 -6.196,0.999c-1.499,0 -2.998,-0.199 -4.398,-0.499c-1.399,-0.3 -2.698,-0.9 -3.897,-1.599c-1.1,-0.7 -2.099,-1.699 -2.899,-2.799c-0.799,-1.099 -1.199,-2.498 -1.299,-4.097l3.698,0c0.2,1.099 0.6,2.098 1.099,2.798c0.6,0.8 1.2,1.399 1.999,1.799c0.8,0.5 1.699,0.8 2.599,0.999c0.999,0.2 1.998,0.3 2.998,0.3c3.398,0 5.896,-0.999 7.396,-2.898c1.499,-1.899 2.298,-4.697 2.298,-8.395l0,-4.098l-0.1,0c-0.899,1.899 -2.098,3.398 -3.797,4.498c-1.6,1.099 -3.598,1.699 -5.797,1.699c-2.399,0 -4.497,-0.4 -6.197,-1.2c-1.699,-0.799 -3.098,-1.899 -4.197,-3.298c-1.099,-1.399 -1.899,-2.998 -2.399,-4.897c-0.499,-1.899 -0.799,-3.898 -0.799,-5.996c0,-2.099 0.3,-3.998 0.899,-5.797c0.6,-1.799 1.499,-3.498 2.599,-4.797c1.099,-1.399 2.598,-2.499 4.197,-3.298c1.699,-0.8 3.598,-1.2 5.797,-1.2c1.099,0 2.199,0.2 3.198,0.5c1,0.3 1.899,0.7 2.699,1.299c0.799,0.6 1.499,1.2 2.198,1.899c0.6,0.7 1.1,1.499 1.499,2.299l0.1,0l0,-5.197l3.698,0l0,27.584c0.1,2.199 -0.2,4.197 -0.599,5.996Zm-8.496,-7.995c1.2,-0.7 2.199,-1.599 2.999,-2.698c0.799,-1.1 1.399,-2.399 1.799,-3.798c0.399,-1.399 0.599,-2.899 0.599,-4.398c0,-1.499 -0.2,-2.898 -0.499,-4.397c-0.3,-1.499 -0.9,-2.798 -1.699,-3.998c-0.8,-1.199 -1.799,-2.199 -2.999,-2.898c-1.199,-0.7 -2.698,-1.099 -4.497,-1.099c-1.699,0 -3.198,0.399 -4.497,1.099c-1.2,0.699 -2.299,1.699 -3.099,2.798c-0.799,1.1 -1.399,2.499 -1.799,3.998c-0.399,1.499 -0.599,2.998 -0.599,4.597c0,1.499 0.2,2.999 0.599,4.398c0.4,1.399 1,2.698 1.799,3.797c0.8,1.1 1.799,1.999 3.099,2.699c1.199,0.7 2.698,0.999 4.397,0.999c1.899,-0.1 3.198,-0.399 4.397,-1.099Z" style="fill:#35495c;fill-rule:nonzero;"/><path d="M331.707,29.266l0,5.896l-3.698,0l0,-5.896l3.698,0Zm0,11.493l0,29.982l-3.698,0l0,-29.982l3.698,0Z" style="fill:#35495c;fill-rule:nonzero;"/><path d="M350.696,40.759l0,3.098l-6.097,0l0,20.188c0,1.2 0.2,2.099 0.5,2.799c0.3,0.699 1.199,1.099 2.499,1.099c0.999,0 2.098,-0.1 3.098,-0.2l0,3.098c-0.5,0 -1.1,0 -1.599,0.1c-0.5,0 -1.1,0.1 -1.599,0.1c-2.399,0 -4.198,-0.499 -5.097,-1.399c-1,-0.899 -1.4,-2.698 -1.4,-5.297l0,-20.488l-5.197,0l0,-3.098l5.197,0l0,-8.995l3.698,0l0,8.995l5.997,0Z" style="fill:#35495c;fill-rule:nonzero;"/><path d="M356.692,45.456c0.6,-1.299 1.499,-2.299 2.499,-3.098c1.099,-0.8 2.299,-1.399 3.798,-1.799c1.399,-0.4 2.998,-0.6 4.797,-0.6c1.299,0 2.598,0.1 3.998,0.4c1.299,0.3 2.498,0.7 3.497,1.399c1,0.7 1.899,1.699 2.599,2.899c0.7,1.299 0.999,2.898 0.999,4.897l0,15.891c0,1.499 0.7,2.198 2.199,2.198c0.4,0 0.8,-0.1 1.199,-0.2l0,3.099c-0.399,0.099 -0.799,0.099 -1.099,0.199c-0.3,0 -0.7,0.1 -1.299,0.1c-0.9,0 -1.699,-0.1 -2.199,-0.399c-0.6,-0.3 -0.999,-0.6 -1.299,-1.1c-0.3,-0.499 -0.5,-0.999 -0.6,-1.699c-0.1,-0.599 -0.1,-1.299 -0.1,-2.099l-0.1,0c-0.699,1 -1.299,1.799 -1.999,2.599c-0.699,0.799 -1.399,1.399 -2.298,1.899c-0.8,0.5 -1.799,0.899 -2.898,1.199c-1.1,0.3 -2.299,0.4 -3.798,0.4c-1.399,0 -2.699,-0.2 -3.898,-0.5c-1.199,-0.3 -2.299,-0.899 -3.198,-1.599c-0.9,-0.699 -1.599,-1.599 -2.199,-2.698c-0.5,-1.1 -0.799,-2.399 -0.799,-3.898c0,-2.099 0.499,-3.698 1.399,-4.897c0.899,-1.199 2.199,-2.099 3.698,-2.699c1.499,-0.599 3.298,-1.099 5.197,-1.299c1.898,-0.3 3.897,-0.5 5.796,-0.699c0.8,-0.1 1.499,-0.2 1.999,-0.3c0.6,-0.1 1.099,-0.3 1.499,-0.6c0.4,-0.3 0.7,-0.7 0.9,-1.199c0.2,-0.5 0.299,-1.2 0.299,-1.999c0,-1.199 -0.199,-2.299 -0.599,-3.098c-0.4,-0.8 -1,-1.399 -1.699,-1.899c-0.7,-0.5 -1.599,-0.8 -2.499,-1c-0.999,-0.199 -1.999,-0.299 -3.098,-0.299c-2.299,0 -4.197,0.599 -5.697,1.699c-1.499,1.099 -2.198,2.898 -2.298,5.297l-3.798,0c0.1,-1.699 0.5,-3.199 1.099,-4.498Zm18.29,8.995c-0.2,0.4 -0.7,0.699 -1.3,0.899c-0.699,0.2 -1.199,0.3 -1.699,0.4c-1.599,0.3 -3.198,0.5 -4.797,0.7c-1.599,0.2 -3.198,0.499 -4.497,0.999c-1.399,0.4 -2.499,1 -3.298,1.799c-0.9,0.8 -1.299,1.899 -1.299,3.398c0,0.9 0.199,1.799 0.599,2.499c0.4,0.699 0.9,1.299 1.499,1.899c0.6,0.499 1.3,0.899 2.199,1.199c0.8,0.3 1.599,0.4 2.499,0.4c1.399,0 2.698,-0.2 3.997,-0.6c1.299,-0.4 2.399,-0.999 3.298,-1.899c0.9,-0.799 1.699,-1.799 2.299,-2.998c0.6,-1.199 0.799,-2.499 0.799,-3.998l0,-4.797l-0.299,0l0,0.1Z" style="fill:#35495c;fill-rule:nonzero;"/><rect x="386.175" y="29.266" width="3.698" height="41.476" style="fill:#35495c;fill-rule:nonzero;"/><path d="M425.152,70.841l-6.296,0l0,-4.097l-0.1,0c-0.899,1.699 -2.199,2.998 -3.898,3.798c-1.699,0.799 -3.498,1.099 -5.396,1.099c-2.399,0 -4.398,-0.4 -6.197,-1.299c-1.799,-0.8 -3.198,-1.999 -4.397,-3.398c-1.2,-1.4 -1.999,-3.099 -2.599,-5.097c-0.599,-1.999 -0.899,-4.098 -0.899,-6.297c0,-2.698 0.4,-5.097 1.099,-6.996c0.7,-1.999 1.699,-3.598 2.898,-4.897c1.2,-1.299 2.599,-2.199 4.198,-2.798c1.599,-0.6 3.198,-0.9 4.797,-0.9c0.9,0 1.899,0.1 2.899,0.3c0.999,0.2 1.898,0.5 2.798,0.8c0.899,0.399 1.699,0.899 2.498,1.499c0.8,0.599 1.4,1.299 1.899,2.099l0.1,0l0,-15.391l6.596,0l0,41.575Zm-23.086,-14.791c0,1.299 0.2,2.499 0.5,3.798c0.299,1.199 0.799,2.298 1.499,3.298c0.699,0.999 1.499,1.699 2.598,2.299c1,0.599 2.299,0.899 3.698,0.899c1.499,0 2.698,-0.3 3.798,-0.899c1.099,-0.6 1.899,-1.4 2.598,-2.399c0.7,-1 1.2,-2.099 1.499,-3.398c0.3,-1.299 0.5,-2.599 0.5,-3.898c0,-3.298 -0.699,-5.896 -2.199,-7.795c-1.499,-1.899 -3.498,-2.799 -6.096,-2.799c-1.599,0 -2.898,0.3 -3.898,1c-1.099,0.599 -1.899,1.499 -2.598,2.498c-0.7,1 -1.2,2.199 -1.499,3.498c-0.3,1.299 -0.4,2.599 -0.4,3.898Z" style="fill:#35495c;fill-rule:nonzero;"/><path d="M446.14,71.641c-2.398,0 -4.497,-0.4 -6.396,-1.199c-1.899,-0.8 -3.498,-1.899 -4.797,-3.298c-1.299,-1.4 -2.299,-3.099 -2.998,-4.998c-0.7,-1.898 -1,-4.097 -1,-6.396c0,-2.299 0.3,-4.397 1,-6.296c0.699,-1.899 1.699,-3.598 2.998,-4.997c1.299,-1.399 2.898,-2.499 4.797,-3.298c1.899,-0.8 3.998,-1.2 6.396,-1.2c2.399,0 4.498,0.4 6.397,1.2c1.898,0.799 3.497,1.899 4.797,3.298c1.299,1.399 2.298,3.098 2.998,4.997c0.7,1.899 0.999,4.097 0.999,6.296c0,2.299 -0.299,4.498 -0.999,6.396c-0.7,1.899 -1.699,3.598 -2.998,4.998c-1.3,1.399 -2.899,2.498 -4.797,3.298c-1.799,0.799 -3.998,1.199 -6.397,1.199Zm0,-5.297c1.499,0 2.799,-0.3 3.798,-0.899c1.099,-0.6 1.999,-1.4 2.698,-2.399c0.7,-1 1.2,-2.099 1.5,-3.398c0.299,-1.299 0.499,-2.599 0.499,-3.898c0,-1.299 -0.2,-2.598 -0.499,-3.798c-0.3,-1.299 -0.8,-2.398 -1.5,-3.398c-0.699,-0.999 -1.599,-1.799 -2.698,-2.398c-1.099,-0.6 -2.399,-0.9 -3.798,-0.9c-1.499,0 -2.798,0.3 -3.798,0.9c-1.099,0.599 -1.998,1.399 -2.698,2.398c-0.7,1 -1.199,2.099 -1.499,3.398c-0.3,1.3 -0.5,2.599 -0.5,3.798c0,1.299 0.2,2.599 0.5,3.898c0.3,1.299 0.799,2.398 1.499,3.398c0.7,0.999 1.599,1.799 2.698,2.399c1.1,0.599 2.399,0.899 3.798,0.899Z" style="fill:#35495c;fill-rule:nonzero;"/><path d="M464.13,40.759l6.996,0l5.896,22.487l0.1,0l5.597,-22.487l6.696,0l5.397,22.487l0.1,0l6.096,-22.487l6.696,0l-9.394,30.082l-6.796,0l-5.597,-22.287l-0.1,0l-5.497,22.287l-6.996,0l-9.194,-30.082Z" style="fill:#35495c;fill-rule:nonzero;"/><path d="M512.102,40.759l6.296,0l0,4.397l0.1,0.1c1,-1.699 2.299,-2.998 3.998,-3.897c1.599,-0.9 3.398,-1.4 5.397,-1.4c3.298,0 5.896,0.9 7.795,2.599c1.899,1.699 2.898,4.297 2.898,7.695l0,20.688l-6.596,0l0,-18.989c-0.1,-2.398 -0.599,-4.097 -1.499,-5.097c-0.899,-1.099 -2.398,-1.599 -4.397,-1.599c-1.1,0 -2.099,0.2 -2.999,0.6c-0.899,0.4 -1.599,0.999 -2.298,1.699c-0.6,0.7 -1.1,1.599 -1.499,2.498c-0.3,1 -0.5,1.999 -0.5,3.099l0,17.689l-6.596,0l0,-30.082l-0.1,0Z" style="fill:#35495c;fill-rule:nonzero;"/><rect x="545.682" y="29.266" width="6.596" height="41.476" style="fill:#35495c;fill-rule:nonzero;"/><path d="M573.266,71.641c-2.398,0 -4.497,-0.4 -6.396,-1.199c-1.899,-0.8 -3.498,-1.899 -4.797,-3.298c-1.3,-1.4 -2.299,-3.099 -2.999,-4.998c-0.699,-1.898 -0.999,-4.097 -0.999,-6.396c0,-2.299 0.3,-4.397 0.999,-6.296c0.7,-1.899 1.699,-3.598 2.999,-4.997c1.299,-1.399 2.898,-2.499 4.797,-3.298c1.899,-0.8 3.998,-1.2 6.396,-1.2c2.399,0 4.498,0.4 6.396,1.2c1.899,0.799 3.498,1.899 4.798,3.298c1.299,1.399 2.298,3.098 2.998,4.997c0.7,1.899 0.999,4.097 0.999,6.296c0,2.299 -0.299,4.498 -0.999,6.396c-0.7,1.899 -1.699,3.598 -2.998,4.998c-1.3,1.399 -2.899,2.498 -4.798,3.298c-1.798,0.799 -3.997,1.199 -6.396,1.199Zm0,-5.297c1.499,0 2.799,-0.3 3.798,-0.899c1.099,-0.6 1.999,-1.4 2.698,-2.399c0.7,-1 1.2,-2.099 1.5,-3.398c0.299,-1.299 0.499,-2.599 0.499,-3.898c0,-1.299 -0.2,-2.598 -0.499,-3.798c-0.3,-1.299 -0.8,-2.398 -1.5,-3.398c-0.699,-0.999 -1.599,-1.799 -2.698,-2.398c-1.099,-0.6 -2.399,-0.9 -3.798,-0.9c-1.499,0 -2.798,0.3 -3.798,0.9c-1.099,0.599 -1.998,1.399 -2.698,2.398c-0.7,1 -1.199,2.099 -1.499,3.398c-0.3,1.3 -0.5,2.599 -0.5,3.798c0,1.299 0.2,2.599 0.5,3.898c0.3,1.299 0.799,2.398 1.499,3.398c0.7,0.999 1.599,1.799 2.698,2.399c1.1,0.599 2.299,0.899 3.798,0.899Z" style="fill:#35495c;fill-rule:nonzero;"/><path d="M619.14,64.145c0,0.8 0.099,1.399 0.299,1.699c0.2,0.3 0.6,0.5 1.3,0.5c0.199,0 0.399,0 0.699,0c0.3,0 0.6,0 0.9,-0.1l0,4.597c-0.2,0.1 -0.5,0.2 -0.9,0.3c-0.4,0.1 -0.699,0.2 -1.099,0.3c-0.4,0.1 -0.8,0.1 -1.199,0.2c-0.4,0.1 -0.7,0.1 -1,0.1c-1.399,0 -2.498,-0.3 -3.398,-0.8c-0.899,-0.499 -1.499,-1.499 -1.699,-2.898c-1.299,1.299 -2.898,2.199 -4.897,2.798c-1.899,0.6 -3.798,0.9 -5.597,0.9c-1.399,0 -2.698,-0.2 -3.898,-0.6c-1.199,-0.4 -2.298,-0.899 -3.298,-1.599c-0.999,-0.699 -1.699,-1.599 -2.298,-2.698c-0.6,-1.1 -0.8,-2.399 -0.8,-3.898c0,-1.899 0.3,-3.398 1,-4.497c0.699,-1.2 1.599,-2.099 2.698,-2.699c1.099,-0.699 2.299,-1.099 3.698,-1.399c1.399,-0.3 2.798,-0.5 4.197,-0.7c1.2,-0.2 2.299,-0.399 3.398,-0.499c1.1,-0.1 1.999,-0.3 2.899,-0.5c0.799,-0.2 1.499,-0.6 1.999,-1.099c0.499,-0.5 0.699,-1.2 0.699,-2.199c0,-0.9 -0.2,-1.599 -0.599,-2.099c-0.4,-0.5 -0.9,-0.999 -1.5,-1.299c-0.599,-0.3 -1.299,-0.5 -1.998,-0.6c-0.7,-0.1 -1.4,-0.1 -2.099,-0.1c-1.899,0 -3.398,0.4 -4.598,1.2c-1.199,0.799 -1.898,1.998 -1.998,3.597l-6.597,0c0.1,-1.898 0.6,-3.498 1.4,-4.797c0.799,-1.299 1.899,-2.298 3.098,-3.098c1.299,-0.799 2.698,-1.299 4.297,-1.599c1.599,-0.3 3.198,-0.5 4.897,-0.5c1.5,0 2.899,0.2 4.398,0.5c1.399,0.3 2.698,0.8 3.898,1.499c1.099,0.7 2.098,1.599 2.798,2.699c0.7,1.099 0.999,2.498 0.999,3.997l0,15.391l-0.099,0Zm-6.597,-8.395c-0.999,0.7 -2.198,1.1 -3.697,1.199c-1.5,0.1 -2.899,0.3 -4.398,0.6c-0.7,0.1 -1.399,0.3 -1.999,0.5c-0.699,0.2 -1.199,0.5 -1.699,0.899c-0.499,0.4 -0.899,0.9 -1.199,1.499c-0.3,0.6 -0.4,1.3 -0.4,2.199c0,0.7 0.2,1.399 0.6,1.899c0.4,0.5 0.899,0.9 1.499,1.199c0.6,0.3 1.299,0.5 1.999,0.6c0.699,0.1 1.399,0.2 1.899,0.2c0.699,0 1.499,-0.1 2.398,-0.3c0.9,-0.2 1.699,-0.5 2.399,-0.999c0.799,-0.5 1.399,-1.1 1.899,-1.799c0.499,-0.7 0.799,-1.599 0.799,-2.599l0,-5.097l-0.1,0Z" style="fill:#35495c;fill-rule:nonzero;"/><path d="M654.619,70.841l-6.296,0l0,-4.097l-0.1,0c-0.9,1.699 -2.199,2.998 -3.898,3.798c-1.699,0.799 -3.498,1.099 -5.397,1.099c-2.399,0 -4.397,-0.4 -6.196,-1.299c-1.799,-0.8 -3.199,-1.999 -4.398,-3.398c-1.199,-1.4 -1.999,-3.099 -2.598,-5.097c-0.6,-1.999 -0.9,-4.098 -0.9,-6.297c0,-2.698 0.4,-5.097 1.1,-6.996c0.699,-1.999 1.699,-3.598 2.898,-4.897c1.199,-1.299 2.598,-2.199 4.197,-2.798c1.599,-0.6 3.199,-0.9 4.798,-0.9c0.899,0 1.899,0.1 2.898,0.3c0.999,0.2 1.899,0.5 2.798,0.8c0.9,0.399 1.699,0.899 2.499,1.499c0.799,0.599 1.399,1.299 1.899,2.099l0.1,0l0,-15.391l6.596,0l0,41.575Zm-23.087,-14.791c0,1.299 0.2,2.499 0.5,3.798c0.3,1.199 0.8,2.298 1.499,3.298c0.7,0.999 1.499,1.699 2.599,2.299c0.999,0.599 2.298,0.899 3.697,0.899c1.5,0 2.699,-0.3 3.798,-0.899c1.1,-0.6 1.899,-1.4 2.599,-2.399c0.699,-1 1.199,-2.099 1.499,-3.398c0.3,-1.299 0.5,-2.599 0.5,-3.898c0,-3.298 -0.7,-5.896 -2.199,-7.795c-1.499,-1.899 -3.498,-2.799 -6.097,-2.799c-1.599,0 -2.898,0.3 -3.897,1c-1.1,0.599 -1.899,1.499 -2.599,2.498c-0.699,1 -1.199,2.199 -1.499,3.498c-0.3,1.299 -0.4,2.599 -0.4,3.898Z" style="fill:#35495c;fill-rule:nonzero;"/><path d="M666.812,61.147c0.2,1.899 0.899,3.298 2.198,4.098c1.3,0.799 2.799,1.199 4.598,1.199c0.599,0 1.299,0 2.099,-0.1c0.799,-0.1 1.499,-0.3 2.198,-0.6c0.7,-0.299 1.3,-0.699 1.699,-1.199c0.4,-0.5 0.6,-1.199 0.6,-2.099c0,-0.899 -0.3,-1.599 -0.9,-2.099c-0.599,-0.499 -1.299,-0.999 -2.198,-1.299c-0.9,-0.3 -1.899,-0.599 -3.098,-0.799c-1.2,-0.2 -2.299,-0.5 -3.498,-0.8c-1.2,-0.3 -2.399,-0.599 -3.598,-0.999c-1.1,-0.4 -2.199,-0.9 -3.098,-1.599c-0.9,-0.7 -1.6,-1.499 -2.199,-2.499c-0.5,-0.999 -0.8,-2.299 -0.8,-3.798c0,-1.599 0.4,-2.998 1.2,-4.097c0.799,-1.1 1.799,-1.999 2.998,-2.699c1.199,-0.699 2.598,-1.199 4.097,-1.399c1.5,-0.3 2.899,-0.4 4.298,-0.4c1.599,0 2.998,0.2 4.497,0.5c1.399,0.3 2.699,0.9 3.798,1.599c1.099,0.7 2.099,1.699 2.898,2.898c0.8,1.2 1.2,2.599 1.4,4.298l-6.896,0c-0.3,-1.599 -1,-2.699 -2.199,-3.198c-1.099,-0.5 -2.499,-0.8 -3.898,-0.8c-0.5,0 -0.999,0 -1.699,0.1c-0.6,0.1 -1.199,0.2 -1.799,0.4c-0.599,0.2 -0.999,0.5 -1.399,0.899c-0.4,0.4 -0.6,0.9 -0.6,1.6c0,0.799 0.3,1.499 0.8,1.998c0.6,0.5 1.299,0.9 2.199,1.3c0.899,0.299 1.898,0.599 3.098,0.799c1.199,0.2 2.398,0.5 3.598,0.8c1.199,0.299 2.398,0.599 3.598,0.999c1.199,0.4 2.198,0.9 3.098,1.599c0.899,0.7 1.599,1.499 2.199,2.499c0.599,0.999 0.799,2.298 0.799,3.698c0,1.798 -0.4,3.298 -1.199,4.497c-0.8,1.199 -1.899,2.299 -3.198,2.998c-1.3,0.8 -2.699,1.299 -4.298,1.699c-1.599,0.3 -3.198,0.5 -4.697,0.5c-1.899,0 -3.698,-0.2 -5.297,-0.6c-1.599,-0.4 -2.998,-1.099 -4.198,-1.899c-1.199,-0.899 -2.098,-1.998 -2.798,-3.298c-0.7,-1.299 -0.999,-2.798 -1.099,-4.597l6.696,0l0,-0.1Z" style="fill:#35495c;fill-rule:nonzero;"/></g></svg>