<svg id="wpforms" xmlns="http://www.w3.org/2000/svg" viewBox="0 0 265 72"><defs><style>.cls-1{fill:#5e5d5d;}.cls-2{fill:#b85a1b;}.cls-3{fill:#7eaaba;}.cls-4{fill:#d3e8ef;}.cls-5{fill:#fff;}.cls-6{fill:#7f3e13;}.cls-7{fill:#e1762f;}.cls-8{fill:#63300f;}.cls-9{fill:#4f2800;}.cls-10{fill:#e5895b;}.cls-11{fill:#fad395;}.cls-12{fill:#ad6151;}.cls-13{fill:#1b1d23;}.cls-14{fill:#036aab;}.cls-15{fill:#0399ed;}</style></defs><g id="wpforms-2" data-name="wpforms"><g id="forms"><path class="cls-1" d="M162.67,54.88a9.61,9.61,0,0,1-1.81-.17l-.35-.06-.06-.36a10.9,10.9,0,0,1-.06-1.53V49.59c0-.5,0-1,0-1.57s0-1.13,0-1.71v-6.5c0-1.17,0-2.28,0-3.39s0-2,0-3a5.59,5.59,0,0,1-3.08-.93l-.23-.18,0-.29c.27-2.19.63-2.75,2-3.17.2-.06.39-.1.65-.16l.6-.13a26.17,26.17,0,0,1,.22-3.54h0c.76-8.73,8-9.41,10.23-9.41s3.74.41,4.56,1.13h0l.21.22a2,2,0,0,1,.36,1.37,5.5,5.5,0,0,1-.35,1.37,3.9,3.9,0,0,1-.71,1.19l-.06.06-.07,0a2.65,2.65,0,0,1-1.14.27,1.8,1.8,0,0,1-.54-.08l-.07,0-.06,0a.37.37,0,0,0-.19-.08h-.08l-.07,0a7,7,0,0,0-1.79-.19c-1.62,0-3.52.55-3.73,4.88,0,.9,0,1.7,0,2.63h1.79c1.15,0,2.85-.05,3.51-.1l.58,0,0,.59c-.15,2.79-.44,3.8-1.84,4.32v0l-.23.1-.36.15-.06,0h-.05a33,33,0,0,1-3.36.11c0,6.11.06,14.28.11,19.41a1.65,1.65,0,0,1-1,1.73A20.94,20.94,0,0,1,162.67,54.88Z"/><path class="cls-1" d="M182.7,55.47c-7.57,0-11.25-4.52-11.25-13.83,0-8.89,4.16-14,11.42-14S194,32.37,194,41.32C194,50.05,189.65,55.47,182.7,55.47Zm0-22.72c-2.67,0-4.26,3.25-4.26,8.68,0,6,1.47,9,4.37,9,2.72,0,4.22-3.19,4.22-9S185.61,32.75,182.7,32.75Z"/><path class="cls-1" d="M196.25,54.88v-.52c.05-2.44.11-6.2.11-10.62l0-9a11,11,0,0,0-.67-3.85l-.1-.31.22-.23a7.46,7.46,0,0,1,2.48-1.45,2.58,2.58,0,0,1,1-.15,2.34,2.34,0,0,1,2.11.86,16,16,0,0,1,2.81-1.31,6.93,6.93,0,0,1,2.57-.51,5.32,5.32,0,0,1,.81.06c2.42.25,3,1.3,3.11,1.91a6.86,6.86,0,0,1-1.05,3.77l-.11.15-.17,0a2.48,2.48,0,0,1-1,.13,12.75,12.75,0,0,1-1.63-.11,2,2,0,0,0-.63-.1,4.34,4.34,0,0,0-3.14,1.1v16.7a4,4,0,0,1-.63,2.49l0,.07-.06,0c-1,.77-2.05.8-5.47.8Z"/><path class="cls-1" d="M238.14,54.88,238,54.6a4.87,4.87,0,0,1-.53-2.22V37.88c0-4.09-.81-4.8-2.5-4.8a5.29,5.29,0,0,0-3.46,1.63V53.19c0,.57-.25,1.32-1.46,1.62a15.39,15.39,0,0,1-2.11.07H224.7l0-.53c.1-2.67.1-6.13.1-10.13V37.83c0-4.09-.82-4.81-2.55-4.81a5.15,5.15,0,0,0-3.51,1.63v17a3.38,3.38,0,0,1-.71,2.37l0,0,0,0c-1,.8-1.89.8-5.42.8H212v-.52c0-2.68,0-6.16,0-10.2v-9.5a11.29,11.29,0,0,0-.61-3.86l-.1-.28.2-.23a6.69,6.69,0,0,1,2.5-1.48,2.76,2.76,0,0,1,.89-.14,2.72,2.72,0,0,1,2.12.93A12,12,0,0,1,220,28.21a10.75,10.75,0,0,1,3.65-.56,8,8,0,0,1,1.16.06,7.15,7.15,0,0,1,4.73,2.07,13,13,0,0,1,3.25-1.52,10.38,10.38,0,0,1,3.53-.56,7.41,7.41,0,0,1,1.23.06h0c5.85.5,6.65,5.26,6.65,9.85v8.92c0,2.62,0,5.09.1,6.95l0,.28-.22.16c-1,.78-2.14,1-5.63,1Z"/><path class="cls-1" d="M254,55.42c-3.75,0-6.88-1.19-7.61-2.89l0-.09v-.11a6.07,6.07,0,0,1,1.17-3.21l.16-.2h.79a3.56,3.56,0,0,1,1.43.33l.38.14a9.67,9.67,0,0,0,3.62.82,7,7,0,0,0,.88-.1,2.24,2.24,0,0,0,2.15-2.4c0-1.1-.54-1.93-1.82-2.8a6.61,6.61,0,0,0-.59-.41l.15-.27-.21.25c-1.29-.9-2.72-2.06-3.69-2.88l-1.33-1.06a7.71,7.71,0,0,1-2.66-5.61c0-4.43,3.57-7.28,9.1-7.28a11.57,11.57,0,0,1,1.63.11c3.63.28,5.36,1.82,5.63,2.78l0,.07v.07A6,6,0,0,1,262,33.74l-.2.26-.33-.08c-.14,0-.47-.1-.74-.15l-.31-.06a11.29,11.29,0,0,1-1.85-.45,6,6,0,0,0-2.24-.45c-1.55,0-2.55.77-2.55,1.95,0,.67.22,1.28,1.26,2.13l.18.12c.56.42,1.28.94,2.05,1.47.6.48,1.24.93,1.84,1.37s.9.65,1.29.95c2.42,2,3.54,4.05,3.54,6.43C263.89,52.2,260,55.42,254,55.42Z"/></g><g id="wp"><path class="cls-2" d="M121.75,55.15a6.72,6.72,0,0,1-1.94-2.88L119.45,51l-.35-1.26c-.09-.31-.17-.61-.24-.88l-.13-.51c-.53-2.2-1.09-4.68-1.52-6.63-.43,1.74-.91,3.6-1.36,5.31l-1.47,5.61,0,.05a1.31,1.31,0,0,0,0,.15s0,.08,0,.13h0c-.28.95-.5,1.7-1.57,2.06-.49.08-1.47.13-3.46.24h-.19l-.15-.12A6.29,6.29,0,0,1,107,52.24l-1-3.77c-.87-3.2-1.91-7-2.84-10.4-.46-1.73-1.86-7-2.28-7.92l-.11-.24.13-.23c.62-1.11,2.4-1.6,5.76-1.6h.18l.14.11a4,4,0,0,1,1.2,2.1c.48,2.1,1,4.36,1.56,6.56.18.81.34,1.62.5,2.39.12.61.24,1.2.36,1.75l.5,2.46c0,.17.06.32.09.46.26-1.11.57-2.4.88-3.73s2-8.09,2.25-9.39a1.73,1.73,0,0,0,.1-.54V29.6l.1-.14c.37-.48,3.23-1,4.27-1a2.58,2.58,0,0,1,.68.07l.12,0,.09.09a4.12,4.12,0,0,1,1.18,2.46c.59,2.58,1.34,5.75,2.15,9.08.11.49.21,1,.31,1.47.14.67.28,1.34.44,2,0,.15.06.28.09.4.46-1.92.93-4.13,1.41-6.43l.24-1.09c.55-2.27,1-4.48,1.5-6.77l0-.15h0v-.2l0-.08a2.34,2.34,0,0,1,.34-.68l0-.06.06,0a2.17,2.17,0,0,1,1.49-.42,21.62,21.62,0,0,1,3.77.48,1.29,1.29,0,0,1,.63.83,4.43,4.43,0,0,1-.26,2l-.19.48h0c-.37,1.24-.76,2.67-1.18,4.2-.3,1.13-.63,2.32-1,3.53-1.24,4.63-2.55,9.42-3.65,13a.73.73,0,0,0-.06.14l0,.2c-.21.88-.41,1.72-1.52,2.09-.46.07-1.34.12-3.08.22l-.57,0Z"/><path class="cls-2" d="M138,65.63a11.54,11.54,0,0,1-2.26-.28l-.34-.08-.06-.34a41.52,41.52,0,0,1-.17-5.51V34.66a11.17,11.17,0,0,0-.56-3.81l-.08-.22.13-.21a5.09,5.09,0,0,1,2.49-1.6,3.66,3.66,0,0,1,.9-.15,2.8,2.8,0,0,1,2.13.94,15.17,15.17,0,0,1,2.91-1.4,9.91,9.91,0,0,1,3.5-.62c6.44,0,10.13,4.46,10.13,12.22,0,6.23-1.74,10.91-5,13.51a9.35,9.35,0,0,1-6.17,2.15,9.75,9.75,0,0,1-3.68-.6v7.24a15.92,15.92,0,0,1-.11,2.38l0,.21-.38.29A7.35,7.35,0,0,1,138,65.63Zm3.84-16.41a4.47,4.47,0,0,0,2.87,1.15c2.4,0,5-2.68,5-10.18,0-6.43-2.41-7.17-4.22-7.17a6.26,6.26,0,0,0-3.62,1.56Z"/></g></g><g id="sullie"><path class="cls-3" d="M10.46,44.49c5.13.69,9.62-.47,13.27-3.75l6.11.32-3.33,9.81c-3.7,5.87-9.07,7.12-14.57,6.75L10.46,44.49Z"/><path class="cls-4" d="M12.73,46.71l1,9c4.58,0,8.23-1.53,11-5.69l2.41-7-2.68-.14a17.06,17.06,0,0,1-11.7,3.89Z"/><path class="cls-5" d="M12.73,46.71l.6,5.31c6.29-.74,11.19-3.33,13.73-9.06l-2.68-.14a16.92,16.92,0,0,1-11.65,3.89"/><path class="cls-3" d="M11.94,36.81a10.41,10.41,0,1,1-10.4,10.4,10.42,10.42,0,0,1,10.4-10.4"/><path class="cls-4" d="M11.94,38.84a8.33,8.33,0,1,0,8.32,8.33,8.32,8.32,0,0,0-8.32-8.33"/><path class="cls-5" d="M11.94,38.84A8.27,8.27,0,0,0,5.1,42.4a8.38,8.38,0,0,0,8.32,7.82,8.27,8.27,0,0,0,6.84-3.56,8.34,8.34,0,0,0-8.32-7.82"/><path class="cls-3" d="M10.88,38.34a7.77,7.77,0,1,1-7.77,7.72,7.75,7.75,0,0,1,7.77-7.72"/><path class="cls-6" d="M10.32,36.25A7.8,7.8,0,1,1,2.51,44a7.83,7.83,0,0,1,7.81-7.77"/><path class="cls-2" d="M11.06,39.21a6.2,6.2,0,1,0,6.2,6.2,6.21,6.21,0,0,0-6.2-6.2"/><path class="cls-6" d="M6.39,30a3.4,3.4,0,0,1,6.8,0c1.89-3.2,7.86-1.44,6,3.56a9.77,9.77,0,0,1,.23,1.2c3.24.18,4.3,5.22-.14,6.8a9.65,9.65,0,0,1-1.75,3.56c-3.8,3.28-5,.6-7.08-1.62-2,0-7.4-1.34-5.87,3.74C1.12,45-1.1,40.51.56,33.94c-2.31-5.32,3.84-7.3,5.83-4Z"/><path class="cls-2" d="M2.65,34.68c-.79,3.19-.84,6.8,1.43,9.39,3.19,3.65,9.66,3.47,12.16-1.11,1.34-2.5,1.25-5.6.69-8.32a36.13,36.13,0,0,0-14.28,0Z"/><path class="cls-7" d="M2.65,34.68c-.79,3.19-.84,6.8,1.43,9.39a7.77,7.77,0,0,0,5.73,2.54V33.94a37.83,37.83,0,0,0-7.16.74"/><path class="cls-6" d="M5.79,37.13a5.59,5.59,0,0,0,.83,5.23,4.18,4.18,0,0,0,6.75-.65,6.85,6.85,0,0,0,.37-4.62,19.89,19.89,0,0,0-7.95,0"/><path class="cls-2" d="M9.77,32.23a1.81,1.81,0,0,0,0-3.61v3.61ZM16.29,30a1.8,1.8,0,1,1-1.81,1.8A1.81,1.81,0,0,1,16.29,30"/><path class="cls-7" d="M3.62,30.15a1.81,1.81,0,0,1,0,3.61A1.85,1.85,0,0,1,1.81,32a1.81,1.81,0,0,1,1.81-1.8m6.15,2.08V28.67A1.84,1.84,0,0,0,8,30.47a1.77,1.77,0,0,0,1.81,1.76Z"/><path class="cls-2" d="M18.32,36.49a1.8,1.8,0,1,1-1.8,1.8,1.77,1.77,0,0,1,1.8-1.8"/><path class="cls-3" d="M80.19,57.76c-.41-5.41-2.86-9.3-7.67-11.38l1-3.74,7.77-2.09c6.75,2,9.34,6.39,10.63,11.8l-11.7,5.41Z"/><path class="cls-5" d="M81.81,54.8l7.73-3.61c-1.35-4.53-3.61-7.44-8.37-8.6l-6.06,1.62-.28,1a14.41,14.41,0,0,1,7,9.57Z"/><path class="cls-3" d="M72.7,58.68a10.1,10.1,0,1,1,12.77,6.43A10.08,10.08,0,0,1,72.7,58.68"/><path class="cls-4" d="M74.37,58.13a8.35,8.35,0,1,0,5.32-10.55,8.34,8.34,0,0,0-5.32,10.55"/><path class="cls-5" d="M90.55,54.38a7.84,7.84,0,0,0-.32-1.48,8.34,8.34,0,0,0-10.54-5.32,9.11,9.11,0,0,0-3.43,2.13,8.74,8.74,0,0,0,.33,1.48,8.36,8.36,0,0,0,10.54,5.32,7.83,7.83,0,0,0,3.42-2.13"/><path class="cls-6" d="M70.81,61.27a9.52,9.52,0,1,1,12,6.06,9.49,9.49,0,0,1-12-6.06"/><path class="cls-2" d="M72.75,60.67a7.5,7.5,0,1,1,9.48,4.76,7.51,7.51,0,0,1-9.48-4.76"/><path class="cls-7" d="M72.43,57.11a7.62,7.62,0,0,1,5.08-6A7.51,7.51,0,0,1,87,55.91a8.09,8.09,0,0,1,.37,1.85,13.08,13.08,0,0,1-14.93-.65Z"/><path class="cls-6" d="M37.84,0a7.11,7.11,0,0,1,6.89,7.26,7.06,7.06,0,0,1-6.89,7.26A7.1,7.1,0,0,1,31,7.26,7.1,7.1,0,0,1,37.84,0"/><path class="cls-2" d="M37.84,2A5.08,5.08,0,0,0,33,7.26a5.1,5.1,0,0,0,4.86,5.27,5.07,5.07,0,0,0,4.85-5.27A5.12,5.12,0,0,0,37.84,2"/><path class="cls-8" d="M37.84,4A3.08,3.08,0,0,0,35,7.31a3.14,3.14,0,0,0,2.87,3.28A3.07,3.07,0,0,0,40.7,7.31,3.13,3.13,0,0,0,37.84,4"/><path class="cls-6" d="M67.06,0A7.11,7.11,0,0,1,74,7.26a6.9,6.9,0,1,1-13.78,0A7.11,7.11,0,0,1,67.06,0"/><path class="cls-2" d="M67.06,2a5.07,5.07,0,0,0-4.85,5.27,4.87,4.87,0,1,0,9.71,0A5.13,5.13,0,0,0,67.06,2"/><path class="cls-9" d="M67.06,4a3.08,3.08,0,0,0-2.87,3.29,3.14,3.14,0,0,0,2.87,3.28,3.07,3.07,0,0,0,2.87-3.28A3.14,3.14,0,0,0,67.06,4"/><path class="cls-6" d="M78,26.08l-.13,0V12.49c0-4.09-9.6-6.39-20.45-6.93a2.16,2.16,0,0,0-4.32-.12H51.83a2.17,2.17,0,0,0-4.33.12c-10.84.52-20.44,2.82-20.44,6.88V26l-.14,0a5,5,0,0,0-3.23,4.72v9.94L52.45,50l28.76-9.48V30.8A5,5,0,0,0,78,26.08Z"/><path class="cls-2" d="M29.37,13V27.61l-1.2.46A3.3,3.3,0,0,0,26,31.21V41.48L52.49,50,79,41.29V31.21a3.33,3.33,0,0,0-2.13-3.14l-1.2-.46V13c-.05-6.93-46.2-6.93-46.25,0Z"/><path class="cls-7" d="M29.37,13V27.61l-1.2.46A3.3,3.3,0,0,0,26,31.21V41.48L52.49,50V44.44c-9.15.05-18.31-6-15.9-17.85h15.9V7.82C40.93,7.82,29.37,9.57,29.37,13Z"/><path class="cls-10" d="M35.34,23.49H69.7c4.85,25.8-39.63,25.62-34.36,0"/><path class="cls-10" d="M37,25.53c-.46,4,.37,7.81,3.33,10.82,3.15,3.14,7.86,4.48,12.21,4.44s8.65-1.34,11.75-4.3a12.79,12.79,0,0,0,3.65-11Z"/><path class="cls-11" d="M58.23,37.55c2.31,3,9.06,1.76,7-4.58l-7,4.58Z"/><path class="cls-9" d="M56.1,36.9c2.59,3.33,11,1.34,9.07-5.87L56.1,36.9Z"/><path class="cls-5" d="M63.87,31.35a1,1,0,0,1,1.2.74,1,1,0,1,1-1.85.51,1,1,0,0,1,.65-1.25m-5.5,3.84a1,1,0,0,1,1.2.74,1,1,0,0,1-.65,1.25,1,1,0,0,1-1.2-.74,1,1,0,0,1,.65-1.25"/><path class="cls-12" d="M61.74,38.2a5.19,5.19,0,0,0,3.7-4.44c-1.48-.23-4.07,2-3.7,4.44"/><path class="cls-11" d="M38.85,23.49H66.09c3.88,18.45-31.4,18.27-27.24,0"/><path class="cls-9" d="M52.45,34a6.82,6.82,0,0,1,1.29-3.05c3.29-.51,6.11-3,5.23-7.45a19.66,19.66,0,0,0-6.48-1.11l-1.34,4.21,1.3,7.4Z"/><path class="cls-8" d="M52.45,34a6.84,6.84,0,0,0-1.3-3.05c-3.28-.51-6.1-3-5.22-7.45a19.65,19.65,0,0,1,6.47-1.11L52.45,34Z"/><path class="cls-12" d="M47.64,24.14a19,19,0,0,1,9.66,0c1.35,3.37-11.14,3.33-9.66,0"/><path class="cls-5" d="M47.27,14.75a3.66,3.66,0,1,1-3.65,3.65,3.66,3.66,0,0,1,3.65-3.65"/><path class="cls-13" d="M47.55,16.05a2.73,2.73,0,1,1-2.73,2.72,2.7,2.7,0,0,1,2.73-2.72"/><path class="cls-5" d="M57.72,14.75a3.66,3.66,0,1,0,3.65,3.65,3.66,3.66,0,0,0-3.65-3.65"/><path class="cls-13" d="M57.49,16.05a2.73,2.73,0,1,0,2.73,2.72,2.76,2.76,0,0,0-2.73-2.72"/><path class="cls-8" d="M49.91,13.6a9.9,9.9,0,0,0-7.54,1.34c-.79-4.49,6.75-5.83,7.54-1.34"/><path class="cls-9" d="M54.34,11.33a9.9,9.9,0,0,1,7.54,1.34c.79-4.49-6.7-5.78-7.54-1.34"/><path class="cls-3" d="M81.17,40.55v28A3.45,3.45,0,0,1,77.74,72H27.06a3.44,3.44,0,0,1-3.42-3.42V40.83L52.4,47.72l28.77-7.17Z"/><path class="cls-4" d="M78.9,43.47,52.45,50,26,43.7V68a1.68,1.68,0,0,0,1.71,1.71H77.23A1.68,1.68,0,0,0,79,68V43.47Z"/><path class="cls-5" d="M52.45,50,26,43.7V68a1.68,1.68,0,0,0,1.72,1.71H52.49V50Z"/><path class="cls-14" d="M52.49,63H74.65v3H52.5V63Zm0-6.15H74.65v3H52.5v-3Z"/><path class="cls-15" d="M52.49,66V63H30.25v3H52.49ZM30.25,56.88H52.49v3H30.25v-3Z"/><polygon class="cls-5" points="39.27 54.94 42.04 54.94 42.04 68.53 39.27 68.53 39.27 54.94"/><path class="cls-3" d="M31.45,42.64c7,1.66,14,3.37,21,5L45,54.75c-4.86-2.87-9.67-6-13.51-12.11"/><path class="cls-5" d="M37.37,46.43a38.17,38.17,0,0,0,7.26,5.45l3.15-3c-3.42-.79-6.94-1.67-10.41-2.45"/><path class="cls-3" d="M73.44,42.64c-7,1.66-14,3.37-21,5l7.49,7.07c4.86-2.87,9.66-6,13.5-12.11"/><path class="cls-5" d="M67.52,46.43a37.55,37.55,0,0,1-7.26,5.45l-3.14-3c3.47-.79,6.94-1.67,10.4-2.45"/></g></svg>