<svg width="429.00000000000006" height="50.95513881393697" viewBox="0 0 404.3981122768509 48.033011531843826">
    <defs id="SvgjsDefs3412"></defs>
    <g id="SvgjsG3413" transform="matrix(1.600079654870088,0,0,1.600079654870088,-1.3751088912080647,3.890248556919609)" fill="#ffffff">
        <path d="M8.0762 20.19531 c-4.1504 0 -7.2168 -2.8223 -7.2168 -7.2559 s3.0664 -7.2461 7.2168 -7.2461 c3.1445 0 5.6641 1.6113 6.6699 4.2871 l-2.7344 0.99609 c-0.625 -1.6406 -2.1191 -2.5879 -3.9355 -2.5879 c-2.4316 0 -4.2969 1.6992 -4.2969 4.5508 s1.8652 4.5605 4.2969 4.5605 c1.8164 0 3.3105 -0.95703 3.9355 -2.5977 l2.7344 0.99609 c-1.0059 2.6758 -3.5254 4.2969 -6.6699 4.2969 z M25.32229375 20.19531 c-4.1504 0 -7.2168 -2.832 -7.2168 -7.2559 c0 -4.4336 3.0664 -7.2461 7.2168 -7.2461 c4.1406 0 7.207 2.8125 7.207 7.2461 c0 4.4238 -3.0664 7.2559 -7.207 7.2559 z M25.32229375 17.5098 c2.4316 0 4.2969 -1.709 4.2969 -4.5703 c0 -2.8516 -1.8652 -4.5508 -4.2969 -4.5508 s-4.2969 1.6992 -4.2969 4.5508 c0 2.8613 1.8652 4.5703 4.2969 4.5703 z M40.078165625 17.4121 l4.4238 0 l0 2.5879 l-7.3535 0 l0 -14.111 l2.9297 0 l0 11.523 z M51.5918375 17.4121 l4.4238 0 l0 2.5879 l-7.3535 0 l0 -14.111 l2.9297 0 l0 11.523 z M68.359609375 8.467 l-5.2344 0 l0 3.2031 l4.6387 0 l0 2.5488 l-4.6387 0 l0 3.1934 l5.2344 0 l0 2.5879 l-8.1836 0 l0 -14.111 l8.1836 0 l0 2.5781 z M79.550809375 20.19531 c-4.1504 0 -7.2168 -2.8223 -7.2168 -7.2559 s3.0664 -7.2461 7.2168 -7.2461 c3.1445 0 5.6641 1.6113 6.6699 4.2871 l-2.7344 0.99609 c-0.625 -1.6406 -2.1191 -2.5879 -3.9355 -2.5879 c-2.4316 0 -4.2969 1.6992 -4.2969 4.5508 s1.8652 4.5605 4.2969 4.5605 c1.8164 0 3.3105 -0.95703 3.9355 -2.5977 l2.7344 0.99609 c-1.0059 2.6758 -3.5254 4.2969 -6.6699 4.2969 z M98.730703125 5.888999999999999 l0 2.5781 l-3.3496 0 l0 11.533 l-2.9004 0 l0 -11.533 l-3.3691 0 l0 -2.5781 l9.6191 0 z"></path>
    </g>
    <g id="SvgjsG3414" transform="matrix(0.6004126441480478,0,0,0.6004126441480478,171.59628620266756,-6.004126441480478)" fill="#ffffff">
        <path xmlns="http://www.w3.org/2000/svg" d="M13,46.18h32.3a4,4,0,0,0,4-4V35.9a4,4,0,0,0-4-4H13a4,4,0,0,0-4,4V42.2A4,4,0,0,0,13,46.18ZM12,35.9a1,1,0,0,1,1-1h32.3a1,1,0,0,1,1,1V42.2a1,1,0,0,1-1,1H13a1,1,0,0,1-1-1ZM9,64a4,4,0,0,0,4,4h32.3a4,4,0,0,0,4-4V57.75a4,4,0,0,0-4-4H13a4,4,0,0,0-4,4Zm3-6.29a1,1,0,0,1,1-1h32.3a1,1,0,0,1,1,1V64a1,1,0,0,1-1,1H13a1,1,0,0,1-1-1ZM9,86a4,4,0,0,0,4,4H86.42a4,4,0,0,0,4-4V79.76a4,4,0,0,0-4-4H13a4,4,0,0,0-4,4Zm3-6.23a1,1,0,0,1,1-1H86.42a1,1,0,0,1,1,1V86a1,1,0,0,1-1,1H13a1,1,0,0,1-1-1ZM87,10H13a4,4,0,0,0-4,4V20.3a4,4,0,0,0,4,4H87a4,4,0,0,0,4-4V14A4,4,0,0,0,87,10ZM88,20.3a1,1,0,0,1-1,1H13a1,1,0,0,1-1-1V14a1,1,0,0,1,1-1H87a1,1,0,0,1,1,1ZM72.18,31.92h0a3.38,3.38,0,0,0-3,1.89l-4,8-8.88,1.29a3.4,3.4,0,0,0-1.88,5.8l6.43,6.27L59.3,64.06a3.4,3.4,0,0,0,4.93,3.58l7.95-4.18,7.95,4.18a3.4,3.4,0,0,0,4.93-3.58l-1.52-8.85L90,48.95a3.4,3.4,0,0,0-1.88-5.8L79.2,41.86l-4-8h0A3.38,3.38,0,0,0,72.18,31.92Zm4.68,12a1.5,1.5,0,0,0,1.13.82l9.66,1.4a.4.4,0,0,1,.22.68l-7,6.82a1.5,1.5,0,0,0-.43,1.33l1.65,9.63a.38.38,0,0,1-.16.39.38.38,0,0,1-.42,0l-8.64-4.54a1.5,1.5,0,0,0-1.4,0L62.84,65a.4.4,0,0,1-.58-.42l1.65-9.63a1.5,1.5,0,0,0-.43-1.33l-7-6.82a.4.4,0,0,1,.22-.68l9.66-1.4a1.5,1.5,0,0,0,1.13-.82l4.32-8.76a.4.4,0,0,1,.72,0Z"></path>
    </g>
    <g id="SvgjsG3415" transform="matrix(1.6000729205777064,0,0,1.6000729205777064,231.68697893421134,3.8903845580426637)" fill="#ffffff">
        <path d="M16.396440625 20 l-3.6719 -6.2109 l-0.84961 0 l0 6.2109 l-2.9297 0 l0 -14.111 l5.1172 0 c3.1934 0 4.541 1.8848 4.541 4.2188 c0 1.8945 -1.0742 3.125 -2.9883 3.5352 l4.248 6.3574 l-3.4668 0 z M11.875040625 8.32 l0 3.3691 l1.7285 0 c1.5625 0 2.1973 -0.66406 2.1973 -1.6797 c0 -1.0059 -0.63477 -1.6895 -2.1973 -1.6895 l-1.7285 0 z M32.119375 8.467 l-5.2344 0 l0 3.2031 l4.6387 0 l0 2.5488 l-4.6387 0 l0 3.1934 l5.2344 0 l0 2.5879 l-8.1836 0 l0 -14.111 l8.1836 0 l0 2.5781 z M46.035375 5.888999999999999 l3.1152 0 l-5.2148 14.111 l-3.2227 0 l-5.1855 -14.111 l3.1055 0 l3.7012 10.693 z M53.1933875 20 l0 -14.111 l2.9297 0 l0 14.111 l-2.9297 0 z M69.87328125 8.467 l-5.2344 0 l0 3.2031 l4.6387 0 l0 2.5488 l-4.6387 0 l0 3.1934 l5.2344 0 l0 2.5879 l-8.1836 0 l0 -14.111 l8.1836 0 l0 2.5781 z M77.10938125 20 l-3.6914 -14.111 l3.0469 0 l2.7539 10.684 l3.1543 -10.684 l2.4707 0 l3.1348 10.684 l2.7832 -10.684 l3.0371 0 l-3.6914 14.111 l-3.7695 0 l-2.7344 -8.7207 l-2.7246 8.7207 l-3.7695 0 z M102.66604375 20.19531 c-3.0273 0 -5.3906 -1.4551 -5.8203 -4.1016 l3.0273 -0.69336 c0.19531 1.582 1.3574 2.4023 2.9102 2.4023 c1.1914 0 2.1387 -0.52734 2.1289 -1.7188 c-0.0097656 -1.3281 -1.5723 -1.748 -3.291 -2.2754 c-2.0703 -0.64453 -4.2871 -1.4063 -4.2871 -4.0039 c0 -2.627 2.1484 -4.1113 4.9805 -4.1113 c2.4805 0 4.9805 1.0059 5.5469 3.7109 l-2.832 0.70313 c-0.26367 -1.4063 -1.2109 -2.0215 -2.5391 -2.0215 c-1.1816 0 -2.1875 0.48828 -2.1875 1.6504 c0 1.084 1.3867 1.4453 2.9883 1.9238 c2.1289 0.64453 4.6484 1.4648 4.6484 4.2773 c0 2.998 -2.5098 4.2578 -5.2734 4.2578 z"></path>
    </g>
</svg>
