<svg xmlns="http://www.w3.org/2000/svg" width="100" height="100" viewBox="0 0 100 100">
    <path fill="#a7aaad" d="M13,46.18h32.3a4,4,0,0,0,4-4V35.9a4,4,0,0,0-4-4H13a4,4,0,0,0-4,4V42.2A4,4,0,0,0,13,46.18Z"/>
    <path fill="#a7aaad" d="M12,35.9a1,1,0,0,1,1-1h32.3a1,1,0,0,1,1,1V42.2a1,1,0,0,1-1,1H13a1,1,0,0,1-1-1Z"/>
    <path fill="#a7aaad" d="M9,64a4,4,0,0,0,4,4h32.3a4,4,0,0,0,4-4V57.75a4,4,0,0,0-4-4H13a4,4,0,0,0-4,4Z"/>
    <path fill="#a7aaad" d="M9,57.71a1,1,0,0,1,1-1h32.3a1,1,0,0,1,1,1V64a1,1,0,0,1-1,1H13a1,1,0,0,1-1-1Z"/>
    <path fill="#a7aaad" d="M9,86a4,4,0,0,0,4,4H86.42a4,4,0,0,0,4-4V79.76a4,4,0,0,0-4-4H13a4,4,0,0,0-4,4Z"/>
    <path fill="#a7aaad" d="M9,79.77a1,1,0,0,1,1-1H86.42a1,1,0,0,1,1,1V86a1,1,0,0,1-1,1H13a1,1,0,0,1-1-1Z"/>
    <path fill="#a7aaad" d="M87,10H13a4,4,0,0,0-4,4V20.3a4,4,0,0,0,4,4H87a4,4,0,0,0,4-4V14A4,4,0,0,0,87,10Z"/>
    <path fill="#a7aaad" d="M88,20.3a1,1,0,0,1-1,1H13a1,1,0,0,1-1-1V14a1,1,0,0,1,1-1H87a1,1,0,0,1,1,1Z"/>
    <path fill="#a7aaad" d="M72.18,31.92h0a3.38,3.38,0,0,0-3,1.89l-4,8-8.88,1.29a3.4,3.4,0,0,0-1.88,5.8l6.43,6.27L59.3,64.06a3.4,3.4,0,0,0,4.93,3.58l7.95-4.18,7.95,4.18a3.4,3.4,0,0,0,4.93-3.58l-1.52-8.85L90,48.95a3.4,3.4,0,0,0-1.88-5.8L79.2,41.86l-4-8h0A3.38,3.38,0,0,0,72.18,31.92Z"/>
</svg>
